<mxfile host="app.diagrams.net" modified="2023-11-02T05:21:27.341Z" agent="Mozilla/5.0 (Windows NT 10.0; Win64; x64) AppleWebKit/537.36 (KHTML, like Gecko) Chrome/118.0.0.0 Safari/537.36" etag="FkLmUEdgGXoeBIUExEj0" version="21.8.2" type="github">
  <diagram name="Page-1" id="wsqKmG6C-X6NRAp9qNFp">
    <mxGraphModel dx="1434" dy="746" grid="0" gridSize="10" guides="1" tooltips="1" connect="1" arrows="1" fold="1" page="1" pageScale="1" pageWidth="850" pageHeight="1100" math="0" shadow="0">
      <root>
        <mxCell id="0" />
        <mxCell id="1" parent="0" />
        <mxCell id="6x0INVDRt19jJb__9WKY-1" value="ASR" style="rounded=1;whiteSpace=wrap;html=1;" vertex="1" parent="1">
          <mxGeometry x="50" y="70" width="120" height="60" as="geometry" />
        </mxCell>
        <mxCell id="6x0INVDRt19jJb__9WKY-2" value="Request" style="rounded=1;whiteSpace=wrap;html=1;" vertex="1" parent="1">
          <mxGeometry x="350" y="163" width="120" height="60" as="geometry" />
        </mxCell>
        <mxCell id="6x0INVDRt19jJb__9WKY-3" value="Chat" style="rounded=1;whiteSpace=wrap;html=1;fillColor=default;" vertex="1" parent="1">
          <mxGeometry x="230" y="266" width="120" height="60" as="geometry" />
        </mxCell>
        <mxCell id="6x0INVDRt19jJb__9WKY-4" value="GetResponse" style="rounded=1;whiteSpace=wrap;html=1;" vertex="1" parent="1">
          <mxGeometry x="347" y="369" width="120" height="60" as="geometry" />
        </mxCell>
        <mxCell id="6x0INVDRt19jJb__9WKY-5" value="EPD" style="rounded=1;whiteSpace=wrap;html=1;" vertex="1" parent="1">
          <mxGeometry x="230" y="70" width="120" height="60" as="geometry" />
        </mxCell>
        <mxCell id="6x0INVDRt19jJb__9WKY-6" value="Text" style="text;html=1;strokeColor=none;fillColor=none;align=center;verticalAlign=middle;whiteSpace=wrap;rounded=0;" vertex="1" parent="1">
          <mxGeometry x="521" y="369" width="60" height="30" as="geometry" />
        </mxCell>
        <mxCell id="6x0INVDRt19jJb__9WKY-7" value="Emotion" style="text;html=1;strokeColor=none;fillColor=none;align=center;verticalAlign=middle;whiteSpace=wrap;rounded=0;" vertex="1" parent="1">
          <mxGeometry x="521" y="393" width="60" height="30" as="geometry" />
        </mxCell>
        <mxCell id="6x0INVDRt19jJb__9WKY-8" value="Speech_act" style="text;html=1;strokeColor=none;fillColor=none;align=center;verticalAlign=middle;whiteSpace=wrap;rounded=0;" vertex="1" parent="1">
          <mxGeometry x="519" y="418" width="60" height="30" as="geometry" />
        </mxCell>
        <mxCell id="6x0INVDRt19jJb__9WKY-10" value="asr" style="text;html=1;strokeColor=none;fillColor=none;align=center;verticalAlign=middle;whiteSpace=wrap;rounded=0;" vertex="1" parent="1">
          <mxGeometry x="522" y="127" width="60" height="30" as="geometry" />
        </mxCell>
        <mxCell id="6x0INVDRt19jJb__9WKY-11" value="mer" style="text;html=1;strokeColor=none;fillColor=none;align=center;verticalAlign=middle;whiteSpace=wrap;rounded=0;" vertex="1" parent="1">
          <mxGeometry x="520" y="150.5" width="60" height="30" as="geometry" />
        </mxCell>
        <mxCell id="6x0INVDRt19jJb__9WKY-12" value="emotion" style="text;html=1;strokeColor=none;fillColor=none;align=center;verticalAlign=middle;whiteSpace=wrap;rounded=0;" vertex="1" parent="1">
          <mxGeometry x="522" y="175.5" width="60" height="30" as="geometry" />
        </mxCell>
        <mxCell id="6x0INVDRt19jJb__9WKY-13" value="action" style="text;html=1;strokeColor=none;fillColor=none;align=center;verticalAlign=middle;whiteSpace=wrap;rounded=0;" vertex="1" parent="1">
          <mxGeometry x="522" y="198.5" width="60" height="30" as="geometry" />
        </mxCell>
        <mxCell id="6x0INVDRt19jJb__9WKY-14" value="attribute" style="text;html=1;strokeColor=none;fillColor=none;align=center;verticalAlign=middle;whiteSpace=wrap;rounded=0;" vertex="1" parent="1">
          <mxGeometry x="522" y="225.5" width="60" height="30" as="geometry" />
        </mxCell>
        <mxCell id="6x0INVDRt19jJb__9WKY-15" value="Text" style="text;html=1;strokeColor=none;fillColor=none;align=center;verticalAlign=middle;whiteSpace=wrap;rounded=0;" vertex="1" parent="1">
          <mxGeometry x="394" y="269" width="60" height="30" as="geometry" />
        </mxCell>
      </root>
    </mxGraphModel>
  </diagram>
</mxfile>
